<svg xmlns="http://www.w3.org/2000/svg" viewBox="0 0 100 100">
  <!-- Gradient background -->
  <defs>
    <linearGradient id="bgGradient" x1="0%" y1="0%" x2="100%" y2="100%">
      <stop offset="0%" style="stop-color:#6366f1;stop-opacity:1" />
      <stop offset="100%" style="stop-color:#8b5cf6;stop-opacity:1" />
    </linearGradient>
    <linearGradient id="keyGradient" x1="0%" y1="0%" x2="100%" y2="100%">
      <stop offset="0%" style="stop-color:#fbbf24;stop-opacity:1" />
      <stop offset="100%" style="stop-color:#f59e0b;stop-opacity:1" />
    </linearGradient>
  </defs>
  
  <!-- Background circle -->
  <circle cx="50" cy="50" r="48" fill="url(#bgGradient)"/>
  
  <!-- Brain shape (simplified) -->
  <g fill="#ffffff" opacity="0.95">
    <!-- Left hemisphere -->
    <path d="M 30 35 Q 25 35 25 40 Q 25 45 28 47 Q 25 49 25 53 Q 25 58 30 58 L 40 58 Q 45 58 45 53 L 45 40 Q 45 35 40 35 Z"/>
    <!-- Right hemisphere -->
    <path d="M 55 35 Q 50 35 50 40 L 50 53 Q 50 58 55 58 L 65 58 Q 70 58 70 53 Q 70 49 67 47 Q 70 45 70 40 Q 70 35 65 35 Z"/>
    <!-- Brain details (curves) -->
    <path d="M 32 40 Q 35 42 38 40" fill="none" stroke="#6366f1" stroke-width="1.5" opacity="0.6"/>
    <path d="M 32 48 Q 35 50 38 48" fill="none" stroke="#6366f1" stroke-width="1.5" opacity="0.6"/>
    <path d="M 57 40 Q 60 42 63 40" fill="none" stroke="#6366f1" stroke-width="1.5" opacity="0.6"/>
    <path d="M 57 48 Q 60 50 63 48" fill="none" stroke="#6366f1" stroke-width="1.5" opacity="0.6"/>
  </g>
  
  <!-- Key symbol (golden) -->
  <g fill="url(#keyGradient)">
    <!-- Key circle/head -->
    <circle cx="50" cy="70" r="6"/>
    <!-- Key shaft -->
    <rect x="47" y="70" width="6" height="15" rx="1"/>
    <!-- Key teeth -->
    <rect x="50" y="82" width="3" height="3"/>
    <rect x="47" y="85" width="3" height="3"/>
  </g>
</svg>
